<svg xmlns="http://www.w3.org/2000/svg" viewBox="0 0 400 400">
  <defs>
    <radialGradient id="bg" cx="50%" cy="50%" r="50%">
      <stop offset="0%" stop-color="#1a110b"/>
      <stop offset="100%" stop-color="#0d0906"/>
    </radialGradient>
    <radialGradient id="glow" cx="50%" cy="50%" r="50%">
      <stop offset="0%" stop-color="#b8532a" stop-opacity="0.5"/>
      <stop offset="60%" stop-color="#b8532a" stop-opacity="0.08"/>
      <stop offset="100%" stop-color="#b8532a" stop-opacity="0"/>
    </radialGradient>
  </defs>
  <rect width="400" height="400" rx="72" fill="url(#bg)"/>
  <circle cx="200" cy="200" r="190" fill="url(#glow)"/>
  <g stroke="#7d6849" stroke-width="2" fill="none">
    <circle cx="200" cy="200" r="182"/>
    <circle cx="200" cy="200" r="160" stroke-dasharray="4 10"/>
  </g>
  <g stroke="#b9a281" stroke-width="2.4">
    <line x1="200" y1="18" x2="200" y2="38"/>
    <line x1="200" y1="382" x2="200" y2="362"/>
    <line x1="18" y1="200" x2="38" y2="200"/>
    <line x1="382" y1="200" x2="362" y2="200"/>
    <line x1="70" y1="70" x2="82" y2="82"/>
    <line x1="330" y1="70" x2="318" y2="82"/>
    <line x1="70" y1="330" x2="82" y2="318"/>
    <line x1="330" y1="330" x2="318" y2="318"/>
  </g>
  <g stroke="#f3e3cf" stroke-width="5.5" stroke-linecap="round" fill="none">
    <path d="M200 70 Q 195 180 200 220 Q 205 260 200 330"/>
    <path d="M200 110 Q 120 140 130 220 Q 140 280 200 300"/>
    <path d="M200 110 Q 290 160 280 230 Q 268 296 200 320"/>
    <path d="M140 200 Q 200 160 260 200"/>
    <path d="M200 220 L 175 280"/>
    <path d="M200 220 L 228 276"/>
    <path d="M178 92 Q 200 78 222 92"/>
  </g>
  <circle cx="200" cy="70" r="8" fill="#f0a45b"/>
  <circle cx="200" cy="330" r="6.5" fill="#b8532a"/>
</svg>
